<?xml version="1.0" encoding="utf-8"?>
<!-- Generator: Adobe Illustrator 18.0.0, SVG Export Plug-In . SVG Version: 6.00 Build 0)  -->
<!DOCTYPE svg PUBLIC "-//W3C//DTD SVG 1.1//EN" "http://www.w3.org/Graphics/SVG/1.1/DTD/svg11.dtd">
<svg version="1.1" id="Layer_1" xmlns="http://www.w3.org/2000/svg" xmlns:xlink="http://www.w3.org/1999/xlink" x="0px" y="0px"
	 width="652px" height="652px" viewBox="0 0 652 652" enable-background="new 0 0 652 652" xml:space="preserve">
<g>
	<g>
		<path fill="#0E303F" d="M484.6,354.3h-29c-2.1-10.3-4.9-20.2-8.5-29.6l24.3-14c5.9-3.3,7.8-10.8,4.4-16.6l-24.3-42
			c-3.3-5.9-10.9-7.8-16.6-4.4l-25.2,14.5c-6.8-7.8-14.2-15-22-21.5l14-24.3c3.3-5.9,1.5-13.2-4.4-16.6l-42-24.3
			c-5.9-3.3-13.2-1.5-16.6,4.6l-14.5,25.2c-9.6-3.3-19.7-5.9-30-7.5v-28c0-6.7-5.5-12.2-12.2-12.2h-48.7c-6.8,0-12.2,5.5-12.2,12.2
			v29c-10.1,2.1-20,4.9-29.6,8.5l-14-24.3c-3.4-5.9-10.8-7.8-16.6-4.4l-42,23.8c-5.9,3.3-7.8,10.8-4.4,16.6l14.5,25.2
			c-7.8,6.8-15,14.2-21.5,22l-24.3-14c-5.9-3.3-13.2-1.3-16.6,4.6l-24.3,42c-3.3,5.9-1.5,13.2,4.6,16.6L72,329.9
			c-3.3,9.6-5.9,19.5-7.5,30h-28c-6.8,0-12.2,5.5-12.2,12.2v48.5c0,6.8,5.5,12.2,12.2,12.2h29c2.1,10.1,4.9,20.2,8.5,29.6l-24.3,14
			c-5.9,3.3-7.8,10.8-4.4,16.6l24.3,42c3.3,5.9,10.8,7.8,16.6,4.4l25.2-14.5c6.8,7.8,14.2,15,22,21.5l-14,24.3
			c-3.3,5.9-1.5,13.2,4.4,16.6l42,24.3c5.9,3.3,13.2,1.5,16.6-4.4l14.5-25.2c9.6,3.3,19.7,5.9,30,7.5v28c0,6.7,5.5,12.2,12.2,12.2
			h48.7c6.7,0,12.2-5.5,12.2-12.2v-29c10.3-2.1,20.2-4.9,29.6-8.5l14,24.3c3.3,5.9,10.8,7.8,16.6,4.4l42-24.3
			c5.9-3.3,7.8-10.8,4.4-16.6l-14.5-25.2c7.8-6.8,15-14.2,21.5-22l24.3,14.2c5.9,3.3,13.2,1.3,16.6-4.4l24.3-42
			c3.3-5.9,1.3-13.2-4.4-16.6l-25.2-14.5c3.3-9.6,5.9-19.5,7.5-29.8h28c6.7,0,12.2-5.5,12.2-12.2v-48.7
			C496.8,359.9,491.2,354.3,484.6,354.3z M260.3,519.7c-69.6,0-126.1-56.5-126.1-126.1s56.5-126.1,126.1-126.1
			S386.3,324,386.3,393.6C386.5,463.2,330,519.7,260.3,519.7z"/>
	</g>
	<path fill="#36D3DE" d="M620.3,121.7h-17.6c-4.1,0-8.5-3.1-9.8-7.2l-3.3-8c-1.8-3.6-1-9,2-11.9l12.5-12.5c2.9-2.9,2.9-7.7,0-10.6
		l-19.2-19.2c-2.9-2.9-7.7-2.9-10.6,0l-12.5,12.5c-2.9,2.9-8.3,3.7-11.9,2l-8-3.3c-3.9-1.3-7-5.7-7-9.8V36.2c0-4.1-3.3-7.5-7.5-7.5
		H500c-4.1,0-7.5,3.3-7.5,7.5v17.6c0,4.1-3.1,8.5-7.2,9.8l-8,3.3c-3.6,1.8-9,1-11.9-2L453,52.3c-2.9-2.9-7.7-2.9-10.6,0l-19.2,19.2
		c-2.9,2.9-2.9,7.7,0,10.6l12.5,12.5c2.9,2.9,3.7,8.3,2,11.9l-3.3,8c-1.3,3.9-5.7,7.2-9.8,7.2H407c-4.1,0-7.5,3.3-7.5,7.5v27.4
		c0,4.1,3.3,7.5,7.5,7.5h17.6c4.1,0,8.5,3.1,9.8,7.2l3.3,8c1.8,3.6,1,9-2,11.9l-12.5,12.5c-2.9,2.9-2.9,7.7,0,10.6l19.2,19.2
		c2.9,2.9,7.7,2.9,10.6,0l12.5-12.5c2.9-2.9,8.3-3.7,11.9-2l8,3.3c3.9,1.3,7.2,5.7,7.2,9.8v17.6c0,4.1,3.3,7.5,7.5,7.5h27.4
		c4.1,0,7.5-3.3,7.5-7.5V232c0-4.1,3.1-8.5,7-9.8l8-3.3c3.6-1.8,9-1,11.9,2l12.5,12.5c2.9,2.9,7.7,2.9,10.6,0l19.2-19.2
		c2.9-2.9,2.9-7.7,0-10.6l-12.5-12.5c-2.9-2.9-3.7-8.3-2-11.9l3.3-8c1.3-3.9,5.7-7.2,9.8-7.2h17.6c4.1,0,7.5-3.3,7.5-7.5v-27.5
		C627.8,125,624.2,121.7,620.3,121.7z M513.6,178.7c-19.9,0-36-16.1-36-36s16.1-36,36-36c19.9,0,36,16.1,36,36
		S533.4,178.7,513.6,178.7z"/>
	<path fill="#FD6120" d="M396.9,75.5h-10.1c-2.4,0-4.9-1.8-5.5-4.1l-2-4.6c-1.1-2.1-0.5-5.2,1.1-6.8l7.2-7.2c1.6-1.6,1.6-4.4,0-6
		l-11.1-11.1c-1.6-1.6-4.4-1.6-6,0l-7.2,7.2c-1.6,1.6-4.7,2.1-6.8,1.1l-4.6-2c-2.3-0.8-3.9-3.3-3.9-5.5V26.4c0-2.4-2-4.2-4.2-4.2
		H328c-2.4,0-4.2,2-4.2,4.2v10.1c0,2.4-1.8,4.9-4.1,5.5l-4.6,2c-2.1,1.1-5.2,0.5-6.8-1.1l-7.2-7.2c-1.6-1.6-4.4-1.6-6,0l-11.1,11.1
		c-1.6,1.6-1.6,4.4,0,6l7.2,7.2c1.6,1.6,2.1,4.7,1.1,6.8l-1.8,4.6c-0.8,2.3-3.3,4.1-5.5,4.1h-10.1c-2.4,0-4.2,2-4.2,4.2v15.6
		c0,2.4,2,4.2,4.2,4.2H285c2.4,0,4.9,1.8,5.5,4.1l1.8,4.6c1.1,2.1,0.5,5.2-1.1,6.8l-7.2,7.2c-1.6,1.6-1.6,4.4,0,6l11.1,11.1
		c1.6,1.6,4.4,1.6,6,0l7.2-7.2c1.6-1.6,4.7-2.1,6.8-1.1l4.6,1.8c2.3,0.8,4.1,3.3,4.1,5.5v10.1c0,2.4,2,4.2,4.2,4.2h15.6
		c2.4,0,4.2-2,4.2-4.2v-10.1c0-2.4,1.8-4.9,3.9-5.5l4.6-1.8c2.1-1.1,5.2-0.5,6.8,1.1l7.2,7.2c1.6,1.6,4.4,1.6,6,0l11.1-11.1
		c1.6-1.6,1.6-4.4,0-6l-7.2-7.2c-1.6-1.6-2.1-4.7-1.1-6.8l2-4.6c0.8-2.3,3.3-4.1,5.5-4.1h10.1c2.4,0,4.2-2,4.2-4.2V79.7
		C401.2,77.4,399.2,75.5,396.9,75.5z M336,108.2c-11.4,0-20.5-9.3-20.5-20.5c0-11.4,9.3-20.5,20.5-20.5c11.4,0,20.5,9.3,20.5,20.5
		S347.3,108.2,336,108.2z"/>
</g>
</svg>
